<svg width="136" height="126" viewBox="0 0 136 126" fill="none" xmlns="http://www.w3.org/2000/svg">
<path d="M15 21.5278L29 13.7778L15 6.02778V21.5278ZM12 31V27.5556H4C2.9 27.5556 1.95867 27.2186 1.176 26.5446C0.392 25.8695 0 25.0583 0 24.1111V3.44444C0 2.49722 0.392 1.68606 1.176 1.01094C1.95867 0.336981 2.9 0 4 0H36C37.1 0 38.042 0.336981 38.826 1.01094C39.6087 1.68606 40 2.49722 40 3.44444V24.1111C40 25.0583 39.6087 25.8695 38.826 26.5446C38.042 27.2186 37.1 27.5556 36 27.5556H28V31H12ZM4 24.1111H36V3.44444H4V24.1111Z" fill="#4F8EF7"/>
</svg>
