<svg width="96" height="96" viewBox="0 0 96 96" fill="none" xmlns="http://www.w3.org/2000/svg">
<path d="M33.4545 53.5263C31.9394 53.5263 30.6515 53.0658 29.5909 52.1447C28.5303 51.2237 28 50.1053 28 48.7895C28 47.4737 28.5303 46.3553 29.5909 45.4342C30.6515 44.5132 31.9394 44.0526 33.4545 44.0526V40.8947C33.4545 40.0263 33.8109 39.2832 34.5236 38.6653C35.2352 38.0463 36.0909 37.7368 37.0909 37.7368H42.5455C42.5455 36.4211 43.0758 35.3026 44.1364 34.3816C45.197 33.4605 46.4848 33 48 33C49.5152 33 50.803 33.4605 51.8636 34.3816C52.9242 35.3026 53.4545 36.4211 53.4545 37.7368H58.9091C59.9091 37.7368 60.7655 38.0463 61.4782 38.6653C62.1897 39.2832 62.5455 40.0263 62.5455 40.8947V44.0526C64.0606 44.0526 65.3485 44.5132 66.4091 45.4342C67.4697 46.3553 68 47.4737 68 48.7895C68 50.1053 67.4697 51.2237 66.4091 52.1447C65.3485 53.0658 64.0606 53.5263 62.5455 53.5263V59.8421C62.5455 60.7105 62.1897 61.4542 61.4782 62.0732C60.7655 62.6911 59.9091 63 58.9091 63H37.0909C36.0909 63 35.2352 62.6911 34.5236 62.0732C33.8109 61.4542 33.4545 60.7105 33.4545 59.8421V53.5263ZM42.5455 50.3684C43.303 50.3684 43.9467 50.1379 44.4764 49.6768C45.0073 49.2168 45.2727 48.6579 45.2727 48C45.2727 47.3421 45.0073 46.7832 44.4764 46.3232C43.9467 45.8621 43.303 45.6316 42.5455 45.6316C41.7879 45.6316 41.1442 45.8621 40.6145 46.3232C40.0836 46.7832 39.8182 47.3421 39.8182 48C39.8182 48.6579 40.0836 49.2168 40.6145 49.6768C41.1442 50.1379 41.7879 50.3684 42.5455 50.3684ZM53.4545 50.3684C54.2121 50.3684 54.8558 50.1379 55.3855 49.6768C55.9164 49.2168 56.1818 48.6579 56.1818 48C56.1818 47.3421 55.9164 46.7832 55.3855 46.3232C54.8558 45.8621 54.2121 45.6316 53.4545 45.6316C52.697 45.6316 52.0533 45.8621 51.5236 46.3232C50.9927 46.7832 50.7273 47.3421 50.7273 48C50.7273 48.6579 50.9927 49.2168 51.5236 49.6768C52.0533 50.1379 52.697 50.3684 53.4545 50.3684ZM42.5455 56.6842H53.4545C53.9697 56.6842 54.4018 56.5326 54.7509 56.2295C55.0988 55.9274 55.2727 55.5526 55.2727 55.1053C55.2727 54.6579 55.0988 54.2826 54.7509 53.9795C54.4018 53.6774 53.9697 53.5263 53.4545 53.5263H42.5455C42.0303 53.5263 41.5988 53.6774 41.2509 53.9795C40.9018 54.2826 40.7273 54.6579 40.7273 55.1053C40.7273 55.5526 40.9018 55.9274 41.2509 56.2295C41.5988 56.5326 42.0303 56.6842 42.5455 56.6842ZM37.0909 59.8421H58.9091V40.8947H37.0909V59.8421Z" fill="#4F8EF7"/>
</svg>
